<svg width="26" height="21" viewBox="0 0 26 21" fill="none" xmlns="http://www.w3.org/2000/svg">
<path d="M0 0H18V14H0V0Z" fill="white"/>
<path fill-rule="evenodd" clip-rule="evenodd" d="M17 1H1V13H17V1ZM0 0V14H18V0H0Z" fill="black"/>
<path fill-rule="evenodd" clip-rule="evenodd" d="M17 4H1V2H17V4Z" fill="black"/>
<path fill-rule="evenodd" clip-rule="evenodd" d="M7 11H3V10H7V11Z" fill="black"/>
<path d="M25.136 12.068C25.136 16.5238 21.5238 20.136 17.068 20.136C12.6122 20.136 9 16.5238 9 12.068C9 7.61216 12.6122 4 17.068 4C21.5238 4 25.136 7.61216 25.136 12.068Z" fill="white"/>
<path fill-rule="evenodd" clip-rule="evenodd" d="M17.068 4.5C12.8883 4.5 9.5 7.8883 9.5 12.068C9.5 16.2477 12.8883 19.636 17.068 19.636C21.2477 19.636 24.636 16.2477 24.636 12.068C24.636 7.8883 21.2477 4.5 17.068 4.5ZM8.5 12.068C8.5 7.33601 12.336 3.5 17.068 3.5C21.7999 3.5 25.636 7.33601 25.636 12.068C25.636 16.7999 21.7999 20.636 17.068 20.636C12.336 20.636 8.5 16.7999 8.5 12.068Z" fill="black"/>
<path d="M20.5819 14.6342C20.2068 14.6342 19.8777 14.5727 19.5947 14.4499C19.3139 14.327 19.0913 14.1537 18.9267 13.93C18.7622 13.704 18.6679 13.4407 18.6437 13.1402L18.6404 13.1007H19.7922L19.7988 13.1369C19.8119 13.24 19.8514 13.3332 19.9172 13.4166C19.9852 13.5 20.0741 13.5658 20.1838 13.6141C20.2957 13.6623 20.4273 13.6864 20.5787 13.6864C20.7278 13.6864 20.8562 13.6612 20.9637 13.6108C21.0734 13.5581 21.1578 13.4868 21.217 13.3969C21.2763 13.3069 21.3059 13.2038 21.3059 13.0875V13.081C21.3059 12.8879 21.2346 12.7409 21.092 12.64C20.9494 12.5391 20.7465 12.4886 20.4832 12.4886H19.9699V11.6693H20.4766C20.6324 11.6693 20.7651 11.6462 20.8748 11.6002C20.9867 11.5541 21.0723 11.4894 21.1315 11.406C21.1929 11.3226 21.2236 11.2261 21.2236 11.1164V11.1098C21.2236 10.9936 21.1973 10.8938 21.1447 10.8104C21.0942 10.7248 21.0196 10.6601 20.9209 10.6162C20.8244 10.5702 20.7081 10.5471 20.5721 10.5471C20.4339 10.5471 20.3121 10.5713 20.2068 10.6195C20.1037 10.6656 20.0214 10.7325 19.96 10.8203C19.9008 10.9058 19.8646 11.0067 19.8514 11.123L19.8481 11.1559H18.7523L18.7556 11.1098C18.7776 10.8115 18.8653 10.5537 19.0189 10.3365C19.1746 10.1172 19.3841 9.94824 19.6474 9.82978C19.9128 9.70912 20.2211 9.64879 20.5721 9.64879C20.934 9.64879 21.2478 9.70363 21.5132 9.81332C21.7787 9.92082 21.9838 10.0711 22.1286 10.2641C22.2734 10.4572 22.3457 10.6832 22.3457 10.942V10.9486C22.3457 11.1482 22.3008 11.3226 22.2108 11.4718C22.1231 11.6188 22.0046 11.7395 21.8554 11.8338C21.7085 11.9281 21.545 11.9939 21.3651 12.0312V12.0543C21.7227 12.0894 22.0068 12.2024 22.2174 12.3932C22.428 12.5841 22.5333 12.8364 22.5333 13.1501V13.1567C22.5333 13.455 22.4532 13.7161 22.2931 13.9398C22.133 14.1614 21.907 14.3325 21.6152 14.4532C21.3234 14.5738 20.979 14.6342 20.5819 14.6342Z" fill="black"/>
<path d="M14.5843 14.5157V13.7095L16.075 12.3208C16.3075 12.108 16.4874 11.9336 16.6147 11.7976C16.7441 11.6594 16.8329 11.542 16.8812 11.4455C16.9317 11.3468 16.9569 11.2492 16.9569 11.1526V11.1395C16.9569 11.021 16.9317 10.9179 16.8812 10.8301C16.8307 10.7424 16.7573 10.6744 16.6607 10.6261C16.5642 10.5779 16.4501 10.5537 16.3185 10.5537C16.1803 10.5537 16.0585 10.5822 15.9532 10.6393C15.8501 10.6963 15.769 10.7753 15.7097 10.8762C15.6505 10.9749 15.6209 11.089 15.6209 11.2184V11.2448L14.5152 11.2415V11.2217C14.5152 10.9058 14.592 10.6294 14.7456 10.3925C14.9013 10.1556 15.1174 9.97127 15.3938 9.83965C15.6724 9.70583 15.996 9.63892 16.3646 9.63892C16.7178 9.63892 17.026 9.69815 17.2892 9.81661C17.5547 9.93288 17.7609 10.0963 17.9079 10.3069C18.0571 10.5175 18.1317 10.7632 18.1317 11.044V11.0605C18.1317 11.2382 18.0944 11.4148 18.0198 11.5903C17.9452 11.7658 17.8223 11.9534 17.6512 12.153C17.4801 12.3504 17.2487 12.5753 16.9569 12.8276L15.8578 13.7918L16.1902 13.2718V13.7918L15.8578 13.5746H18.1942V14.5157H14.5843Z" fill="black"/>
<path d="M12.4632 14.5157V10.8565H12.4006L11.2555 11.6298V10.5899L12.4632 9.76725H13.6709V14.5157H12.4632Z" fill="black"/>
</svg>
